# xmcd
#
# Track frame offsets:
#	150
#	10401
#	25463
#	35870
#	48192
#	53105
#	61993
#	71110
#	83727
#	98647
#	102075
#	106809
#	116399
#	133403
#	149950
#	161803
#	176263
#	188667
#
# Disc length: 2635 seconds
#
# Revision: 0
# Processed by: cddbd v1.4PL0 Copyright (c) Steve Scherf et al.
# Submitted via: dBpowerAMP V4.0
#
DISCID=fe0a4912
DTITLE=Hughes Brothers - A Family Christmas
DYEAR=1998
DGENRE=Country
TTITLE0=Good Old Fashoned Country Christmas
TTITLE1=Christmas Medley
TTITLE2=The Christmas Song - Chestnuts
TTITLE3=My Heart Goes Home For Christmas
TTITLE4=Toyland
TTITLE5=Christmas Was Meant For Children
TTITLE6=Rockin Around The Christmas Tree
TTITLE7=Santa's Cause
TTITLE8=Jingle Bells Medley
TTITLE9=Teach The Children
TTITLE10=Little Lambs
TTITLE11=O Christmas Tree
TTITLE12=Mary Pulled The Shawl
TTITLE13=I Wonder As I Wander
TTITLE14=Shepherd Boy
TTITLE15=The First Noel
TTITLE16=Mary's Lullaby
TTITLE17=O Holy Night
EXTD=
EXTT0=
EXTT1=
EXTT2=
EXTT3=
EXTT4=
EXTT5=
EXTT6=
EXTT7=
EXTT8=
EXTT9=
EXTT10=
EXTT11=
EXTT12=
EXTT13=
EXTT14=
EXTT15=
EXTT16=
EXTT17=
PLAYORDER=
